<svg xmlns="http://www.w3.org/2000/svg" xmlns:xlink="http://www.w3.org/1999/xlink" width="2000" zoomAndPan="magnify" viewBox="0 0 1500 1499.999933" height="2000" preserveAspectRatio="xMidYMid meet" version="1.0"><defs><g/><clipPath id="c8dc176f0b"><path d="M 1194 160 L 1500 160 L 1500 478 L 1194 478 Z M 1194 160 " clip-rule="nonzero"/></clipPath><clipPath id="dad8e4134e"><rect x="0" width="1500" y="0" height="594"/></clipPath></defs><g transform="matrix(1, 0, 0, 1, 0, 453)"><g clip-path="url(#dad8e4134e)"><g fill="#000000" fill-opacity="1"><g transform="translate(0.00003335, 477.855041)"><g><path d="M 287.171875 -316.703125 C 285.984375 -301.492188 285.164062 -286.878906 284.71875 -272.859375 C 284.269531 -258.847656 284.046875 -248.113281 284.046875 -240.65625 C 284.046875 -234.09375 284.191406 -227.828125 284.484375 -221.859375 C 284.785156 -215.898438 285.085938 -210.832031 285.390625 -206.65625 L 275.09375 -206.65625 C 270.320312 -231.707031 264.28125 -251.535156 256.96875 -266.140625 C 249.664062 -280.753906 240.945312 -291.117188 230.8125 -297.234375 C 220.675781 -303.347656 208.75 -306.40625 195.03125 -306.40625 L 184.734375 -306.40625 L 184.734375 -51 C 184.734375 -39.0625 186 -30.109375 188.53125 -24.140625 C 191.070312 -18.179688 195.769531 -14.234375 202.625 -12.296875 C 209.488281 -10.359375 219.484375 -9.242188 232.609375 -8.953125 L 232.609375 0 C 223.359375 -0.300781 211.050781 -0.597656 195.6875 -0.890625 C 180.332031 -1.191406 164.304688 -1.34375 147.609375 -1.34375 C 131.210938 -1.34375 115.707031 -1.191406 101.09375 -0.890625 C 86.476562 -0.597656 74.695312 -0.300781 65.75 0 L 65.75 -8.953125 C 79.175781 -9.242188 89.316406 -10.359375 96.171875 -12.296875 C 103.023438 -14.234375 107.644531 -18.179688 110.03125 -24.140625 C 112.425781 -30.109375 113.625 -39.0625 113.625 -51 L 113.625 -306.40625 L 103.78125 -306.40625 C 90.0625 -306.40625 78.128906 -303.347656 67.984375 -297.234375 C 57.847656 -291.117188 49.203125 -280.832031 42.046875 -266.375 C 34.890625 -251.914062 28.628906 -232.007812 23.265625 -206.65625 L 12.96875 -206.65625 C 13.5625 -210.832031 13.929688 -215.898438 14.078125 -221.859375 C 14.234375 -227.828125 14.3125 -234.09375 14.3125 -240.65625 C 14.3125 -248.113281 14.085938 -258.847656 13.640625 -272.859375 C 13.191406 -286.878906 12.375 -301.492188 11.1875 -316.703125 C 24.90625 -316.398438 39.890625 -316.097656 56.140625 -315.796875 C 72.390625 -315.503906 88.710938 -315.359375 105.109375 -315.359375 C 121.515625 -315.359375 136.28125 -315.359375 149.40625 -315.359375 C 162.820312 -315.359375 177.65625 -315.359375 193.90625 -315.359375 C 210.15625 -315.359375 226.484375 -315.503906 242.890625 -315.796875 C 259.296875 -316.097656 274.054688 -316.398438 287.171875 -316.703125 Z M 287.171875 -316.703125 "/></g></g></g><g fill="#000000" fill-opacity="1"><g transform="translate(298.799816, 477.855041)"><g><path d="M 254.515625 -316.703125 C 253.328125 -303.578125 252.507812 -290.898438 252.0625 -278.671875 C 251.613281 -266.441406 251.390625 -257.050781 251.390625 -250.5 C 251.390625 -244.53125 251.535156 -238.863281 251.828125 -233.5 C 252.128906 -228.132812 252.429688 -223.660156 252.734375 -220.078125 L 242.4375 -220.078125 C 239.457031 -241.847656 234.835938 -259.066406 228.578125 -271.734375 C 222.316406 -284.410156 214.191406 -293.359375 204.203125 -298.578125 C 194.210938 -303.796875 182.503906 -306.40625 169.078125 -306.40625 L 150.75 -306.40625 C 142.09375 -306.40625 135.53125 -305.660156 131.0625 -304.171875 C 126.59375 -302.679688 123.609375 -299.695312 122.109375 -295.21875 C 120.617188 -290.75 119.875 -283.894531 119.875 -274.65625 L 119.875 -42.046875 C 119.875 -32.804688 120.617188 -25.945312 122.109375 -21.46875 C 123.609375 -17 126.59375 -14.015625 131.0625 -12.515625 C 135.53125 -11.023438 142.09375 -10.28125 150.75 -10.28125 L 172.65625 -10.28125 C 186.082031 -10.28125 197.9375 -13.1875 208.21875 -19 C 218.507812 -24.820312 227.304688 -34.738281 234.609375 -48.75 C 241.921875 -62.769531 247.515625 -81.707031 251.390625 -105.5625 L 261.671875 -105.5625 C 260.773438 -96.019531 260.328125 -83.492188 260.328125 -67.984375 C 260.328125 -61.128906 260.476562 -51.4375 260.78125 -38.90625 C 261.082031 -26.382812 261.976562 -13.414062 263.46875 0 C 248.257812 -0.59375 231.109375 -0.960938 212.015625 -1.109375 C 192.929688 -1.265625 175.9375 -1.34375 161.03125 -1.34375 C 153.570312 -1.34375 144.023438 -1.34375 132.390625 -1.34375 C 120.765625 -1.34375 108.242188 -1.265625 94.828125 -1.109375 C 81.410156 -0.960938 67.84375 -0.816406 54.125 -0.671875 C 40.40625 -0.523438 27.429688 -0.300781 15.203125 0 L 15.203125 -8.953125 C 24.742188 -9.546875 31.898438 -10.734375 36.671875 -12.515625 C 41.453125 -14.304688 44.660156 -17.882812 46.296875 -23.25 C 47.929688 -28.625 48.75 -36.679688 48.75 -47.421875 L 48.75 -269.28125 C 48.75 -280.3125 47.929688 -288.4375 46.296875 -293.65625 C 44.660156 -298.875 41.378906 -302.453125 36.453125 -304.390625 C 31.535156 -306.328125 24.453125 -307.445312 15.203125 -307.75 L 15.203125 -316.703125 C 27.429688 -316.398438 40.40625 -316.171875 54.125 -316.015625 C 67.84375 -315.867188 81.410156 -315.722656 94.828125 -315.578125 C 108.242188 -315.429688 120.765625 -315.359375 132.390625 -315.359375 C 144.023438 -315.359375 153.570312 -315.359375 161.03125 -315.359375 C 174.75 -315.359375 190.328125 -315.429688 207.765625 -315.578125 C 225.210938 -315.722656 240.796875 -316.097656 254.515625 -316.703125 Z M 184.734375 -163.71875 C 184.734375 -163.71875 184.734375 -162.222656 184.734375 -159.234375 C 184.734375 -156.253906 184.734375 -154.765625 184.734375 -154.765625 L 106.453125 -154.765625 C 106.453125 -154.765625 106.453125 -156.253906 106.453125 -159.234375 C 106.453125 -162.222656 106.453125 -163.71875 106.453125 -163.71875 Z M 197.71875 -222.765625 C 196.519531 -205.765625 195.992188 -192.789062 196.140625 -183.84375 C 196.296875 -174.894531 196.375 -166.695312 196.375 -159.25 C 196.375 -151.789062 196.519531 -143.585938 196.8125 -134.640625 C 197.113281 -125.691406 197.859375 -112.71875 199.046875 -95.71875 L 188.765625 -95.71875 C 187.273438 -106.15625 184.515625 -115.847656 180.484375 -124.796875 C 176.460938 -133.742188 170.722656 -140.972656 163.265625 -146.484375 C 155.816406 -152.003906 146.125 -154.765625 134.1875 -154.765625 L 134.1875 -163.71875 C 143.132812 -163.71875 150.738281 -165.582031 157 -169.3125 C 163.269531 -173.039062 168.414062 -177.957031 172.4375 -184.0625 C 176.46875 -190.175781 179.675781 -196.660156 182.0625 -203.515625 C 184.445312 -210.378906 186.234375 -216.796875 187.421875 -222.765625 Z M 197.71875 -222.765625 "/></g></g></g><g fill="#000000" fill-opacity="1"><g transform="translate(582.391235, 477.855041)"><g><path d="M 15.203125 -316.703125 C 22.660156 -316.398438 32.722656 -316.097656 45.390625 -315.796875 C 58.066406 -315.503906 70.671875 -315.359375 83.203125 -315.359375 C 97.515625 -315.359375 111.378906 -315.503906 124.796875 -315.796875 C 138.210938 -316.097656 147.753906 -316.25 153.421875 -316.25 C 181.160156 -316.25 204.195312 -313.191406 222.53125 -307.078125 C 240.875 -300.960938 254.59375 -292.085938 263.6875 -280.453125 C 272.78125 -268.828125 277.328125 -254.816406 277.328125 -238.421875 C 277.328125 -228.273438 275.238281 -218.054688 271.0625 -207.765625 C 266.894531 -197.484375 259.816406 -187.941406 249.828125 -179.140625 C 239.835938 -170.347656 226.191406 -163.34375 208.890625 -158.125 C 191.597656 -152.90625 169.832031 -150.296875 143.59375 -150.296875 L 100.640625 -150.296875 L 100.640625 -159.25 L 139.109375 -159.25 C 156.703125 -159.25 170.046875 -162.601562 179.140625 -169.3125 C 188.242188 -176.019531 194.507812 -184.960938 197.9375 -196.140625 C 201.363281 -207.328125 203.078125 -219.78125 203.078125 -233.5 C 203.078125 -257.050781 198.898438 -275.3125 190.546875 -288.28125 C 182.203125 -301.257812 167.890625 -307.75 147.609375 -307.75 C 135.984375 -307.75 128.453125 -305.210938 125.015625 -300.140625 C 121.585938 -295.078125 119.875 -284.789062 119.875 -269.28125 L 119.875 -47.421875 C 119.875 -36.679688 120.691406 -28.625 122.328125 -23.25 C 123.972656 -17.882812 127.179688 -14.304688 131.953125 -12.515625 C 136.722656 -10.734375 143.878906 -9.546875 153.421875 -8.953125 L 153.421875 0 C 145.367188 -0.59375 135.226562 -0.960938 123 -1.109375 C 110.78125 -1.265625 98.410156 -1.34375 85.890625 -1.34375 C 71.566406 -1.34375 58.066406 -1.265625 45.390625 -1.109375 C 32.722656 -0.960938 22.660156 -0.59375 15.203125 0 L 15.203125 -8.953125 C 24.742188 -9.546875 31.898438 -10.734375 36.671875 -12.515625 C 41.453125 -14.304688 44.660156 -17.882812 46.296875 -23.25 C 47.929688 -28.625 48.75 -36.679688 48.75 -47.421875 L 48.75 -269.28125 C 48.75 -280.3125 47.929688 -288.4375 46.296875 -293.65625 C 44.660156 -298.875 41.378906 -302.453125 36.453125 -304.390625 C 31.535156 -306.328125 24.453125 -307.445312 15.203125 -307.75 Z M 99.75 -157.90625 C 112.570312 -157.601562 123.679688 -157.003906 133.078125 -156.109375 C 142.472656 -155.210938 150.75 -154.390625 157.90625 -153.640625 C 165.0625 -152.898438 171.472656 -152.382812 177.140625 -152.09375 C 204.273438 -149.695312 224.328125 -143.878906 237.296875 -134.640625 C 250.265625 -125.398438 258.691406 -111.535156 262.578125 -93.046875 L 272.859375 -46.96875 C 275.546875 -35.039062 278.378906 -26.691406 281.359375 -21.921875 C 284.335938 -17.148438 288.660156 -14.765625 294.328125 -14.765625 C 298.203125 -15.054688 301.40625 -16.019531 303.9375 -17.65625 C 306.476562 -19.300781 309.238281 -21.765625 312.21875 -25.046875 L 318.484375 -19.6875 C 310.429688 -10.4375 301.78125 -3.800781 292.53125 0.21875 C 283.289062 4.25 272.113281 6.265625 259 6.265625 C 242.894531 6.265625 229.625 2.835938 219.1875 -4.015625 C 208.75 -10.878906 201.890625 -23.554688 198.609375 -42.046875 L 190.5625 -86.78125 C 188.46875 -99.300781 185.929688 -110.257812 182.953125 -119.65625 C 179.972656 -129.050781 175.875 -136.503906 170.65625 -142.015625 C 165.4375 -147.535156 158.203125 -150.296875 148.953125 -150.296875 L 100.640625 -150.296875 Z M 99.75 -157.90625 "/></g></g></g><g fill="#d4622a" fill-opacity="1"><g transform="translate(891.989252, 477.855041)"><g><path d="M 15.203125 -316.703125 C 22.660156 -316.398438 32.722656 -316.097656 45.390625 -315.796875 C 58.066406 -315.503906 70.671875 -315.359375 83.203125 -315.359375 C 97.515625 -315.359375 111.378906 -315.503906 124.796875 -315.796875 C 138.210938 -316.097656 147.753906 -316.25 153.421875 -316.25 C 181.160156 -316.25 204.195312 -313.191406 222.53125 -307.078125 C 240.875 -300.960938 254.59375 -292.085938 263.6875 -280.453125 C 272.78125 -268.828125 277.328125 -254.816406 277.328125 -238.421875 C 277.328125 -228.273438 275.238281 -218.054688 271.0625 -207.765625 C 266.894531 -197.484375 259.816406 -187.941406 249.828125 -179.140625 C 239.835938 -170.347656 226.191406 -163.34375 208.890625 -158.125 C 191.597656 -152.90625 169.832031 -150.296875 143.59375 -150.296875 L 100.640625 -150.296875 L 100.640625 -159.25 L 139.109375 -159.25 C 156.703125 -159.25 170.046875 -162.601562 179.140625 -169.3125 C 188.242188 -176.019531 194.507812 -184.960938 197.9375 -196.140625 C 201.363281 -207.328125 203.078125 -219.78125 203.078125 -233.5 C 203.078125 -257.050781 198.898438 -275.3125 190.546875 -288.28125 C 182.203125 -301.257812 167.890625 -307.75 147.609375 -307.75 C 135.984375 -307.75 128.453125 -305.210938 125.015625 -300.140625 C 121.585938 -295.078125 119.875 -284.789062 119.875 -269.28125 L 119.875 -47.421875 C 119.875 -36.679688 120.691406 -28.625 122.328125 -23.25 C 123.972656 -17.882812 127.179688 -14.304688 131.953125 -12.515625 C 136.722656 -10.734375 143.878906 -9.546875 153.421875 -8.953125 L 153.421875 0 C 145.367188 -0.59375 135.226562 -0.960938 123 -1.109375 C 110.78125 -1.265625 98.410156 -1.34375 85.890625 -1.34375 C 71.566406 -1.34375 58.066406 -1.265625 45.390625 -1.109375 C 32.722656 -0.960938 22.660156 -0.59375 15.203125 0 L 15.203125 -8.953125 C 24.742188 -9.546875 31.898438 -10.734375 36.671875 -12.515625 C 41.453125 -14.304688 44.660156 -17.882812 46.296875 -23.25 C 47.929688 -28.625 48.75 -36.679688 48.75 -47.421875 L 48.75 -269.28125 C 48.75 -280.3125 47.929688 -288.4375 46.296875 -293.65625 C 44.660156 -298.875 41.378906 -302.453125 36.453125 -304.390625 C 31.535156 -306.328125 24.453125 -307.445312 15.203125 -307.75 Z M 99.75 -157.90625 C 112.570312 -157.601562 123.679688 -157.003906 133.078125 -156.109375 C 142.472656 -155.210938 150.75 -154.390625 157.90625 -153.640625 C 165.0625 -152.898438 171.472656 -152.382812 177.140625 -152.09375 C 204.273438 -149.695312 224.328125 -143.878906 237.296875 -134.640625 C 250.265625 -125.398438 258.691406 -111.535156 262.578125 -93.046875 L 272.859375 -46.96875 C 275.546875 -35.039062 278.378906 -26.691406 281.359375 -21.921875 C 284.335938 -17.148438 288.660156 -14.765625 294.328125 -14.765625 C 298.203125 -15.054688 301.40625 -16.019531 303.9375 -17.65625 C 306.476562 -19.300781 309.238281 -21.765625 312.21875 -25.046875 L 318.484375 -19.6875 C 310.429688 -10.4375 301.78125 -3.800781 292.53125 0.21875 C 283.289062 4.25 272.113281 6.265625 259 6.265625 C 242.894531 6.265625 229.625 2.835938 219.1875 -4.015625 C 208.75 -10.878906 201.890625 -23.554688 198.609375 -42.046875 L 190.5625 -86.78125 C 188.46875 -99.300781 185.929688 -110.257812 182.953125 -119.65625 C 179.972656 -129.050781 175.875 -136.503906 170.65625 -142.015625 C 165.4375 -147.535156 158.203125 -150.296875 148.953125 -150.296875 L 100.640625 -150.296875 Z M 99.75 -157.90625 "/></g></g></g><g clip-path="url(#c8dc176f0b)"><g fill="#000000" fill-opacity="1"><g transform="translate(1201.605345, 477.855041)"><g><path d="M 164.609375 -317.59375 L 273.3125 -37.578125 C 277.488281 -26.835938 282.179688 -19.453125 287.390625 -15.421875 C 292.609375 -11.398438 297.304688 -9.242188 301.484375 -8.953125 L 301.484375 0 C 292.535156 -0.59375 282.023438 -0.960938 269.953125 -1.109375 C 257.878906 -1.265625 245.726562 -1.34375 233.5 -1.34375 C 219.78125 -1.34375 206.804688 -1.265625 194.578125 -1.109375 C 182.347656 -0.960938 172.65625 -0.59375 165.5 0 L 165.5 -8.953125 C 180.707031 -9.546875 190.320312 -12.148438 194.34375 -16.765625 C 198.375 -21.390625 197.410156 -31.304688 191.453125 -46.515625 L 115.40625 -254.515625 L 123.453125 -266.15625 L 55.46875 -89.015625 C 48.90625 -72.609375 44.953125 -59.1875 43.609375 -48.75 C 42.265625 -38.3125 43.007812 -30.257812 45.84375 -24.59375 C 48.675781 -18.9375 53.296875 -14.988281 59.703125 -12.75 C 66.117188 -10.507812 73.800781 -9.242188 82.75 -8.953125 L 82.75 0 C 72.90625 -0.59375 63.507812 -0.960938 54.5625 -1.109375 C 45.625 -1.265625 36.53125 -1.34375 27.28125 -1.34375 C 20.71875 -1.34375 14.53125 -1.265625 8.71875 -1.109375 C 2.90625 -0.960938 -2.234375 -0.59375 -6.703125 0 L -6.703125 -8.953125 C -0.441406 -10.140625 5.960938 -14.160156 12.515625 -21.015625 C 19.078125 -27.878906 25.492188 -39.515625 31.765625 -55.921875 L 133.75 -317.59375 C 138.519531 -317.289062 143.660156 -317.140625 149.171875 -317.140625 C 154.691406 -317.140625 159.835938 -317.289062 164.609375 -317.59375 Z M 195.921875 -128.828125 L 195.921875 -119.875 L 62.625 -119.875 L 67.09375 -128.828125 Z M 195.921875 -128.828125 "/></g></g></g></g></g></g></svg>